<svg width="699" height="731" viewBox="0 0 699 731" fill="none" xmlns="http://www.w3.org/2000/svg">
<path d="M667.5 0.5L3 160H0.5V188L11 201H122.5L681.5 68.5L687.5 64.5L673.5 0.5H667.5Z" fill="black" stroke="black"/>
<path d="M11 219.5V201.5H122L135.5 215.5H698V286.5H3V219.5H11Z" fill="black" stroke="black"/>
<path d="M668 8L618 20.896L676 70L681.5 69.008L687 64.544L668 8Z" fill="black" stroke="black"/>
<path d="M244 171L190 125.5L250 111L305 157L244 171Z" fill="#9EA2AD"/>
<path d="M305 156L251 110.5L311 96L366 142L305 156Z" fill="#C0C3C8"/>
<path d="M366.47 142L312 95.7417L372.522 81L428 127.767L366.47 142Z" fill="#E7ECF5"/>
<path d="M427.409 128L372 80.9833L433.565 66L490 113.533L427.409 128Z" fill="#3967F0"/>
<path d="M489.47 113L435 66.7417L495.522 52L551 98.7667L489.47 113Z" fill="#12A33A" stroke="#12A33A"/>
<path d="M550.409 99L495 51.225L556.565 36L613 84.3L550.409 99Z" fill="#DE3322"/>
<path d="M611.878 84L556 36.225L618.087 21L675 69.3L611.878 84Z" fill="#E9E127"/>
<rect x="6" y="289" width="689" height="439" fill="white" stroke="black" stroke-width="6"/>
<rect x="3" y="360" width="695" height="4" fill="black"/>
<rect x="170" y="505" width="141" height="4" transform="rotate(-90 170 505)" fill="black"/>
<rect x="370" y="507" width="147" height="4" transform="rotate(-90 370 507)" fill="black"/>
<rect x="531" y="505" width="141" height="4" transform="rotate(-90 531 505)" fill="black"/>
<rect x="3" y="505" width="695" height="4" fill="black"/>
<rect x="3" y="569" width="695" height="4" fill="black"/>
<rect x="3" y="640" width="695" height="4" fill="black"/>
<path d="M29.2756 353V326.818H39.6051C41.5909 326.818 43.2827 327.197 44.6804 327.956C46.0781 328.706 47.1435 329.75 47.8764 331.088C48.6179 332.418 48.9886 333.952 48.9886 335.69C48.9886 337.429 48.6136 338.963 47.8636 340.293C47.1136 341.622 46.027 342.658 44.6037 343.399C43.1889 344.141 41.4759 344.511 39.4645 344.511H32.8807V340.075H38.5696C39.6349 340.075 40.5128 339.892 41.2031 339.526C41.902 339.151 42.4219 338.635 42.7628 337.979C43.1122 337.314 43.2869 336.551 43.2869 335.69C43.2869 334.821 43.1122 334.062 42.7628 333.415C42.4219 332.759 41.902 332.251 41.2031 331.893C40.5043 331.527 39.6179 331.344 38.544 331.344H34.8111V353H29.2756ZM52.5842 353V326.818H62.9137C64.891 326.818 66.5785 327.172 67.9762 327.879C69.3825 328.578 70.4521 329.571 71.185 330.858C71.9265 332.136 72.2972 333.641 72.2972 335.371C72.2972 337.109 71.9222 338.605 71.1722 339.858C70.4222 341.102 69.3356 342.057 67.9123 342.722C66.4975 343.386 64.7844 343.719 62.7731 343.719H55.8569V339.27H61.8782C62.935 339.27 63.8129 339.125 64.5117 338.835C65.2106 338.545 65.7305 338.111 66.0714 337.531C66.4208 336.952 66.5955 336.232 66.5955 335.371C66.5955 334.501 66.4208 333.768 66.0714 333.172C65.7305 332.575 65.2063 332.124 64.4989 331.817C63.8001 331.501 62.918 331.344 61.8526 331.344H58.1197V353H52.5842ZM66.7234 341.085L73.2305 353H67.1197L60.7532 341.085H66.7234ZM100.269 339.909C100.269 342.764 99.7276 345.193 98.6452 347.196C97.5714 349.199 96.1055 350.729 94.2475 351.786C92.3981 352.834 90.3185 353.358 88.0089 353.358C85.6822 353.358 83.5941 352.83 81.7447 351.773C79.8952 350.716 78.4336 349.186 77.3597 347.183C76.2859 345.18 75.7489 342.756 75.7489 339.909C75.7489 337.054 76.2859 334.625 77.3597 332.622C78.4336 330.619 79.8952 329.094 81.7447 328.045C83.5941 326.989 85.6822 326.46 88.0089 326.46C90.3185 326.46 92.3981 326.989 94.2475 328.045C96.1055 329.094 97.5714 330.619 98.6452 332.622C99.7276 334.625 100.269 337.054 100.269 339.909ZM94.6566 339.909C94.6566 338.06 94.3796 336.5 93.8256 335.23C93.2802 333.96 92.5089 332.997 91.5117 332.341C90.5146 331.685 89.3469 331.357 88.0089 331.357C86.6708 331.357 85.5032 331.685 84.506 332.341C83.5089 332.997 82.7333 333.96 82.1793 335.23C81.6339 336.5 81.3612 338.06 81.3612 339.909C81.3612 341.759 81.6339 343.318 82.1793 344.588C82.7333 345.858 83.5089 346.821 84.506 347.477C85.5032 348.134 86.6708 348.462 88.0089 348.462C89.3469 348.462 90.5146 348.134 91.5117 347.477C92.5089 346.821 93.2802 345.858 93.8256 344.588C94.3796 343.318 94.6566 341.759 94.6566 339.909ZM113.651 353H104.369V326.818H113.727C116.361 326.818 118.628 327.342 120.528 328.391C122.429 329.43 123.891 330.926 124.913 332.878C125.945 334.83 126.46 337.165 126.46 339.884C126.46 342.611 125.945 344.955 124.913 346.915C123.891 348.875 122.42 350.379 120.503 351.428C118.594 352.476 116.31 353 113.651 353ZM109.905 348.257H113.42C115.057 348.257 116.433 347.967 117.55 347.388C118.675 346.8 119.518 345.892 120.081 344.665C120.652 343.429 120.938 341.835 120.938 339.884C120.938 337.949 120.652 336.368 120.081 335.141C119.518 333.913 118.679 333.01 117.562 332.43C116.446 331.851 115.07 331.561 113.433 331.561H109.905V348.257Z" fill="black"/>
<path d="M29.2756 400V373.818H39.6051C41.5824 373.818 43.2699 374.172 44.6676 374.879C46.0739 375.578 47.1435 376.571 47.8764 377.858C48.6179 379.136 48.9886 380.641 48.9886 382.371C48.9886 384.109 48.6136 385.605 47.8636 386.858C47.1136 388.102 46.027 389.057 44.6037 389.722C43.1889 390.386 41.4759 390.719 39.4645 390.719H32.5483V386.27H38.5696C39.6264 386.27 40.5043 386.125 41.2031 385.835C41.902 385.545 42.4219 385.111 42.7628 384.531C43.1122 383.952 43.2869 383.232 43.2869 382.371C43.2869 381.501 43.1122 380.768 42.7628 380.172C42.4219 379.575 41.8977 379.124 41.1903 378.817C40.4915 378.501 39.6094 378.344 38.544 378.344H34.8111V400H29.2756ZM43.4148 388.085L49.9219 400H43.8111L37.4446 388.085H43.4148ZM76.9602 386.909C76.9602 389.764 76.419 392.193 75.3366 394.196C74.2628 396.199 72.7969 397.729 70.9389 398.786C69.0895 399.834 67.0099 400.358 64.7003 400.358C62.3736 400.358 60.2855 399.83 58.4361 398.773C56.5866 397.716 55.125 396.186 54.0511 394.183C52.9773 392.18 52.4403 389.756 52.4403 386.909C52.4403 384.054 52.9773 381.625 54.0511 379.622C55.125 377.619 56.5866 376.094 58.4361 375.045C60.2855 373.989 62.3736 373.46 64.7003 373.46C67.0099 373.46 69.0895 373.989 70.9389 375.045C72.7969 376.094 74.2628 377.619 75.3366 379.622C76.419 381.625 76.9602 384.054 76.9602 386.909ZM71.348 386.909C71.348 385.06 71.071 383.5 70.517 382.23C69.9716 380.96 69.2003 379.997 68.2031 379.341C67.206 378.685 66.0384 378.357 64.7003 378.357C63.3622 378.357 62.1946 378.685 61.1974 379.341C60.2003 379.997 59.4247 380.96 58.8707 382.23C58.3253 383.5 58.0526 385.06 58.0526 386.909C58.0526 388.759 58.3253 390.318 58.8707 391.588C59.4247 392.858 60.2003 393.821 61.1974 394.477C62.1946 395.134 63.3622 395.462 64.7003 395.462C66.0384 395.462 67.206 395.134 68.2031 394.477C69.2003 393.821 69.9716 392.858 70.517 391.588C71.071 390.318 71.348 388.759 71.348 386.909ZM81.0607 400V373.818H86.5962V395.436H97.8207V400H81.0607ZM101.487 400V373.818H107.022V395.436H118.246V400H101.487Z" fill="black"/>
<path d="M38.5568 552H29.2756V525.818H38.6335C41.267 525.818 43.5341 526.342 45.4347 527.391C47.3352 528.43 48.7969 529.926 49.8196 531.878C50.8509 533.83 51.3665 536.165 51.3665 538.884C51.3665 541.611 50.8509 543.955 49.8196 545.915C48.7969 547.875 47.3267 549.379 45.4091 550.428C43.5 551.476 41.2159 552 38.5568 552ZM34.8111 547.257H38.3267C39.9631 547.257 41.3395 546.967 42.456 546.388C43.581 545.8 44.4247 544.892 44.9872 543.665C45.5582 542.429 45.8438 540.835 45.8438 538.884C45.8438 536.949 45.5582 535.368 44.9872 534.141C44.4247 532.913 43.5852 532.01 42.4688 531.43C41.3523 530.851 39.9759 530.561 38.3395 530.561H34.8111V547.257ZM61.0025 525.818V552H55.467V525.818H61.0025ZM65.5568 552V525.818H75.8864C77.8636 525.818 79.5511 526.172 80.9489 526.879C82.3551 527.578 83.4247 528.571 84.1577 529.858C84.8991 531.136 85.2699 532.641 85.2699 534.371C85.2699 536.109 84.8949 537.605 84.1449 538.858C83.3949 540.102 82.3082 541.057 80.8849 541.722C79.4702 542.386 77.7571 542.719 75.7457 542.719H68.8295V538.27H74.8509C75.9077 538.27 76.7855 538.125 77.4844 537.835C78.1832 537.545 78.7031 537.111 79.044 536.531C79.3935 535.952 79.5682 535.232 79.5682 534.371C79.5682 533.501 79.3935 532.768 79.044 532.172C78.7031 531.575 78.179 531.124 77.4716 530.817C76.7727 530.501 75.8906 530.344 74.8253 530.344H71.0923V552H65.5568ZM79.696 540.085L86.2031 552H80.0923L73.7259 540.085H79.696ZM89.1818 552V525.818H106.824V530.382H94.7173V536.621H105.916V541.185H94.7173V547.436H106.875V552H89.1818ZM134.326 534.984H128.726C128.624 534.26 128.415 533.616 128.1 533.054C127.784 532.483 127.38 531.997 126.885 531.597C126.391 531.196 125.82 530.889 125.172 530.676C124.533 530.463 123.838 530.357 123.088 530.357C121.733 530.357 120.553 530.693 119.547 531.366C118.542 532.031 117.762 533.003 117.208 534.281C116.654 535.551 116.377 537.094 116.377 538.909C116.377 540.776 116.654 542.344 117.208 543.614C117.77 544.884 118.554 545.842 119.56 546.49C120.566 547.138 121.729 547.462 123.05 547.462C123.792 547.462 124.478 547.364 125.108 547.168C125.748 546.972 126.314 546.686 126.809 546.311C127.303 545.928 127.712 545.463 128.036 544.918C128.368 544.372 128.598 543.75 128.726 543.051L134.326 543.077C134.181 544.278 133.819 545.438 133.239 546.554C132.668 547.662 131.897 548.655 130.925 549.533C129.962 550.402 128.811 551.092 127.473 551.604C126.144 552.107 124.64 552.358 122.961 552.358C120.625 552.358 118.537 551.83 116.696 550.773C114.864 549.716 113.415 548.186 112.35 546.183C111.293 544.18 110.765 541.756 110.765 538.909C110.765 536.054 111.301 533.625 112.375 531.622C113.449 529.619 114.907 528.094 116.748 527.045C118.588 525.989 120.659 525.46 122.961 525.46C124.478 525.46 125.884 525.673 127.179 526.099C128.483 526.526 129.638 527.148 130.644 527.966C131.65 528.776 132.468 529.768 133.098 530.945C133.738 532.121 134.147 533.467 134.326 534.984ZM137.298 530.382V525.818H158.801V530.382H150.785V552H145.314V530.382H137.298ZM185.206 538.909C185.206 541.764 184.665 544.193 183.583 546.196C182.509 548.199 181.043 549.729 179.185 550.786C177.336 551.834 175.256 552.358 172.946 552.358C170.62 552.358 168.532 551.83 166.682 550.773C164.833 549.716 163.371 548.186 162.297 546.183C161.223 544.18 160.686 541.756 160.686 538.909C160.686 536.054 161.223 533.625 162.297 531.622C163.371 529.619 164.833 528.094 166.682 527.045C168.532 525.989 170.62 525.46 172.946 525.46C175.256 525.46 177.336 525.989 179.185 527.045C181.043 528.094 182.509 529.619 183.583 531.622C184.665 533.625 185.206 536.054 185.206 538.909ZM179.594 538.909C179.594 537.06 179.317 535.5 178.763 534.23C178.218 532.96 177.446 531.997 176.449 531.341C175.452 530.685 174.284 530.357 172.946 530.357C171.608 530.357 170.441 530.685 169.444 531.341C168.446 531.997 167.671 532.96 167.117 534.23C166.571 535.5 166.299 537.06 166.299 538.909C166.299 540.759 166.571 542.318 167.117 543.588C167.671 544.858 168.446 545.821 169.444 546.477C170.441 547.134 171.608 547.462 172.946 547.462C174.284 547.462 175.452 547.134 176.449 546.477C177.446 545.821 178.218 544.858 178.763 543.588C179.317 542.318 179.594 540.759 179.594 538.909ZM189.307 552V525.818H199.636C201.614 525.818 203.301 526.172 204.699 526.879C206.105 527.578 207.175 528.571 207.908 529.858C208.649 531.136 209.02 532.641 209.02 534.371C209.02 536.109 208.645 537.605 207.895 538.858C207.145 540.102 206.058 541.057 204.635 541.722C203.22 542.386 201.507 542.719 199.496 542.719H192.58V538.27H198.601C199.658 538.27 200.536 538.125 201.234 537.835C201.933 537.545 202.453 537.111 202.794 536.531C203.143 535.952 203.318 535.232 203.318 534.371C203.318 533.501 203.143 532.768 202.794 532.172C202.453 531.575 201.929 531.124 201.222 530.817C200.523 530.501 199.641 530.344 198.575 530.344H194.842V552H189.307ZM203.446 540.085L209.953 552H203.842L197.476 540.085H203.446Z" fill="black"/>
<path d="M52.3764 598.984H46.777C46.6747 598.26 46.4659 597.616 46.1506 597.054C45.8352 596.483 45.4304 595.997 44.9361 595.597C44.4418 595.196 43.8707 594.889 43.223 594.676C42.5838 594.463 41.8892 594.357 41.1392 594.357C39.7841 594.357 38.6037 594.693 37.598 595.366C36.5923 596.031 35.8125 597.003 35.2585 598.281C34.7045 599.551 34.4276 601.094 34.4276 602.909C34.4276 604.776 34.7045 606.344 35.2585 607.614C35.821 608.884 36.6051 609.842 37.6108 610.49C38.6165 611.138 39.7798 611.462 41.1009 611.462C41.8423 611.462 42.5284 611.364 43.1591 611.168C43.7983 610.972 44.3651 610.686 44.8594 610.311C45.3537 609.928 45.7628 609.463 46.0866 608.918C46.419 608.372 46.6491 607.75 46.777 607.051L52.3764 607.077C52.2315 608.278 51.8693 609.438 51.2898 610.554C50.7188 611.662 49.9474 612.655 48.9759 613.533C48.0128 614.402 46.8622 615.092 45.5241 615.604C44.1946 616.107 42.6903 616.358 41.0114 616.358C38.6761 616.358 36.5881 615.83 34.7472 614.773C32.9148 613.716 31.4659 612.186 30.4006 610.183C29.3438 608.18 28.8153 605.756 28.8153 602.909C28.8153 600.054 29.3523 597.625 30.4261 595.622C31.5 593.619 32.9574 592.094 34.7983 591.045C36.6392 589.989 38.7102 589.46 41.0114 589.46C42.5284 589.46 43.9347 589.673 45.2301 590.099C46.5341 590.526 47.6889 591.148 48.6946 591.966C49.7003 592.776 50.5185 593.768 51.1491 594.945C51.7884 596.121 52.1974 597.467 52.3764 598.984ZM60.3665 616H54.4347L63.473 589.818H70.6065L79.6321 616H73.7003L67.142 595.801H66.9375L60.3665 616ZM59.9957 605.709H74.0071V610.03H59.9957V605.709ZM82.7834 589.818H89.6101L96.8203 607.409H97.1271L104.337 589.818H111.164V616H105.795V598.959H105.577L98.8018 615.872H95.1456L88.37 598.895H88.1527V616H82.7834V589.818ZM115.725 616V589.818H133.367V594.382H121.26V600.621H132.459V605.185H121.26V611.436H133.418V616H115.725ZM137.768 616V589.818H148.097C150.075 589.818 151.762 590.172 153.16 590.879C154.566 591.578 155.636 592.571 156.369 593.858C157.11 595.136 157.481 596.641 157.481 598.371C157.481 600.109 157.106 601.605 156.356 602.858C155.606 604.102 154.519 605.057 153.096 605.722C151.681 606.386 149.968 606.719 147.957 606.719H141.04V602.27H147.062C148.119 602.27 148.996 602.125 149.695 601.835C150.394 601.545 150.914 601.111 151.255 600.531C151.604 599.952 151.779 599.232 151.779 598.371C151.779 597.501 151.604 596.768 151.255 596.172C150.914 595.575 150.39 595.124 149.683 594.817C148.984 594.501 148.102 594.344 147.036 594.344H143.303V616H137.768ZM151.907 604.085L158.414 616H152.303L145.937 604.085H151.907ZM165.906 616H159.974L169.012 589.818H176.146L185.171 616H179.239L172.681 595.801H172.477L165.906 616ZM165.535 605.709H179.546V610.03H165.535V605.709Z" fill="black"/>
<path d="M38.5568 694H29.2756V667.818H38.6335C41.267 667.818 43.5341 668.342 45.4347 669.391C47.3352 670.43 48.7969 671.926 49.8196 673.878C50.8509 675.83 51.3665 678.165 51.3665 680.884C51.3665 683.611 50.8509 685.955 49.8196 687.915C48.7969 689.875 47.3267 691.379 45.4091 692.428C43.5 693.476 41.2159 694 38.5568 694ZM34.8111 689.257H38.3267C39.9631 689.257 41.3395 688.967 42.456 688.388C43.581 687.8 44.4247 686.892 44.9872 685.665C45.5582 684.429 45.8438 682.835 45.8438 680.884C45.8438 678.949 45.5582 677.368 44.9872 676.141C44.4247 674.913 43.5852 674.01 42.4688 673.43C41.3523 672.851 39.9759 672.561 38.3395 672.561H34.8111V689.257ZM58.5032 694H52.5714L61.6097 667.818H68.7433L77.7688 694H71.837L65.2788 673.801H65.0742L58.5032 694ZM58.1325 683.709H72.1438V688.03H58.1325V683.709ZM76.7237 672.382V667.818H98.2266V672.382H90.2109V694H84.7393V672.382H76.7237ZM101.768 694V667.818H119.41V672.382H107.303V678.621H118.502V683.185H107.303V689.436H119.461V694H101.768Z" fill="black"/>
<path d="M200.479 381.348C200.376 380.317 199.938 379.516 199.162 378.945C198.386 378.374 197.334 378.088 196.004 378.088C195.101 378.088 194.338 378.216 193.716 378.472C193.094 378.719 192.616 379.064 192.284 379.507C191.96 379.95 191.798 380.453 191.798 381.016C191.781 381.484 191.879 381.893 192.092 382.243C192.314 382.592 192.616 382.895 193 383.151C193.384 383.398 193.827 383.615 194.33 383.803C194.832 383.982 195.369 384.135 195.94 384.263L198.293 384.825C199.435 385.081 200.483 385.422 201.438 385.848C202.392 386.274 203.219 386.798 203.918 387.42C204.616 388.043 205.158 388.776 205.541 389.619C205.933 390.463 206.134 391.43 206.142 392.521C206.134 394.124 205.724 395.513 204.915 396.689C204.114 397.857 202.955 398.764 201.438 399.412C199.929 400.051 198.109 400.371 195.979 400.371C193.865 400.371 192.024 400.047 190.456 399.399C188.896 398.751 187.678 397.793 186.8 396.523C185.93 395.244 185.474 393.663 185.432 391.78H190.788C190.848 392.658 191.099 393.391 191.543 393.979C191.994 394.558 192.595 394.997 193.345 395.295C194.104 395.585 194.96 395.73 195.915 395.73C196.852 395.73 197.666 395.594 198.357 395.321C199.055 395.048 199.597 394.669 199.98 394.183C200.364 393.697 200.555 393.139 200.555 392.509C200.555 391.92 200.381 391.426 200.031 391.026C199.69 390.625 199.188 390.284 198.523 390.003C197.866 389.722 197.061 389.466 196.107 389.236L193.256 388.52C191.048 387.983 189.305 387.143 188.027 386.001C186.749 384.859 186.114 383.321 186.122 381.386C186.114 379.801 186.536 378.416 187.388 377.232C188.249 376.047 189.429 375.122 190.929 374.457C192.429 373.793 194.134 373.46 196.043 373.46C197.986 373.46 199.682 373.793 201.131 374.457C202.588 375.122 203.722 376.047 204.531 377.232C205.341 378.416 205.759 379.788 205.784 381.348H200.479ZM232.966 382.984H227.367C227.265 382.26 227.056 381.616 226.74 381.054C226.425 380.483 226.02 379.997 225.526 379.597C225.032 379.196 224.461 378.889 223.813 378.676C223.174 378.463 222.479 378.357 221.729 378.357C220.374 378.357 219.194 378.693 218.188 379.366C217.182 380.031 216.402 381.003 215.848 382.281C215.294 383.551 215.017 385.094 215.017 386.909C215.017 388.776 215.294 390.344 215.848 391.614C216.411 392.884 217.195 393.842 218.201 394.49C219.206 395.138 220.37 395.462 221.691 395.462C222.432 395.462 223.118 395.364 223.749 395.168C224.388 394.972 224.955 394.686 225.449 394.311C225.944 393.928 226.353 393.463 226.676 392.918C227.009 392.372 227.239 391.75 227.367 391.051L232.966 391.077C232.821 392.278 232.459 393.438 231.88 394.554C231.309 395.662 230.537 396.655 229.566 397.533C228.603 398.402 227.452 399.092 226.114 399.604C224.784 400.107 223.28 400.358 221.601 400.358C219.266 400.358 217.178 399.83 215.337 398.773C213.505 397.716 212.056 396.186 210.99 394.183C209.934 392.18 209.405 389.756 209.405 386.909C209.405 384.054 209.942 381.625 211.016 379.622C212.09 377.619 213.547 376.094 215.388 375.045C217.229 373.989 219.3 373.46 221.601 373.46C223.118 373.46 224.525 373.673 225.82 374.099C227.124 374.526 228.279 375.148 229.284 375.966C230.29 376.776 231.108 377.768 231.739 378.945C232.378 380.121 232.787 381.467 232.966 382.984ZM236.936 400V373.818H254.578V378.382H242.471V384.621H253.67V389.185H242.471V395.436H254.629V400H236.936ZM280.878 373.818V400H276.097L264.706 383.521H264.514V400H258.979V373.818H263.837L275.138 390.284H275.368V373.818H280.878ZM285.451 400V373.818H303.093V378.382H290.987V384.621H302.186V389.185H290.987V395.436H303.145V400H285.451Z" fill="black"/>
<path d="M381.278 378.382V373.818H402.781V378.382H394.766V400H389.294V378.382H381.278ZM407.636 400H401.704L410.743 373.818H417.876L426.902 400H420.97L414.412 379.801H414.207L407.636 400ZM407.265 389.709H421.277V394.03H407.265V389.709ZM430.053 400V373.818H435.588V385.362H435.934L445.355 373.818H451.99L442.275 385.541L452.105 400H445.483L438.311 389.236L435.588 392.56V400H430.053ZM454.873 400V373.818H472.515V378.382H460.409V384.621H471.608V389.185H460.409V395.436H472.566V400H454.873Z" fill="black"/>
<path d="M547.276 398V371.818H564.611V376.382H552.811V382.621H563.46V387.185H552.811V398H547.276ZM568.334 398V371.818H578.664C580.65 371.818 582.341 372.197 583.739 372.956C585.137 373.706 586.202 374.75 586.935 376.088C587.676 377.418 588.047 378.952 588.047 380.69C588.047 382.429 587.672 383.963 586.922 385.293C586.172 386.622 585.086 387.658 583.662 388.399C582.248 389.141 580.534 389.511 578.523 389.511H571.939V385.075H577.628C578.694 385.075 579.571 384.892 580.262 384.526C580.961 384.151 581.48 383.635 581.821 382.979C582.171 382.314 582.346 381.551 582.346 380.69C582.346 379.821 582.171 379.062 581.821 378.415C581.48 377.759 580.961 377.251 580.262 376.893C579.563 376.527 578.676 376.344 577.603 376.344H573.87V398H568.334ZM605.846 379.348C605.744 378.317 605.305 377.516 604.529 376.945C603.754 376.374 602.701 376.088 601.371 376.088C600.468 376.088 599.705 376.216 599.083 376.472C598.461 376.719 597.984 377.064 597.651 377.507C597.327 377.95 597.165 378.453 597.165 379.016C597.148 379.484 597.246 379.893 597.46 380.243C597.681 380.592 597.984 380.895 598.367 381.151C598.751 381.398 599.194 381.615 599.697 381.803C600.2 381.982 600.737 382.135 601.308 382.263L603.66 382.825C604.802 383.081 605.85 383.422 606.805 383.848C607.759 384.274 608.586 384.798 609.285 385.42C609.984 386.043 610.525 386.776 610.908 387.619C611.3 388.463 611.501 389.43 611.509 390.521C611.501 392.124 611.092 393.513 610.282 394.689C609.481 395.857 608.322 396.764 606.805 397.412C605.296 398.051 603.477 398.371 601.346 398.371C599.232 398.371 597.391 398.047 595.823 397.399C594.263 396.751 593.045 395.793 592.167 394.523C591.298 393.244 590.842 391.663 590.799 389.78H596.156C596.215 390.658 596.467 391.391 596.91 391.979C597.362 392.558 597.962 392.997 598.712 393.295C599.471 393.585 600.327 393.73 601.282 393.73C602.219 393.73 603.033 393.594 603.724 393.321C604.423 393.048 604.964 392.669 605.347 392.183C605.731 391.697 605.923 391.139 605.923 390.509C605.923 389.92 605.748 389.426 605.398 389.026C605.058 388.625 604.555 388.284 603.89 388.003C603.234 387.722 602.428 387.466 601.474 387.236L598.623 386.52C596.415 385.983 594.673 385.143 593.394 384.001C592.116 382.859 591.481 381.321 591.489 379.386C591.481 377.801 591.903 376.416 592.755 375.232C593.616 374.047 594.796 373.122 596.296 372.457C597.796 371.793 599.501 371.46 601.41 371.46C603.353 371.46 605.049 371.793 606.498 372.457C607.955 373.122 609.089 374.047 609.898 375.232C610.708 376.416 611.126 377.788 611.151 379.348H605.846Z" fill="black"/>
</svg>
