<svg width="697" height="530" viewBox="0 0 697 530" fill="none" xmlns="http://www.w3.org/2000/svg">
<path d="M9 18.5V0.5H120L133.5 14.5H696V85.5H1V18.5H9Z" fill="black" stroke="black"/>
<rect x="4" y="88" width="689" height="439" fill="white" stroke="black" stroke-width="6"/>
<rect x="1" y="159" width="695" height="4" fill="black"/>
<rect x="168" y="304" width="141" height="4" transform="rotate(-90 168 304)" fill="black"/>
<rect x="368" y="306" width="147" height="4" transform="rotate(-90 368 306)" fill="black"/>
<rect x="529" y="304" width="141" height="4" transform="rotate(-90 529 304)" fill="black"/>
<rect x="1" y="304" width="695" height="4" fill="black"/>
<rect x="1" y="368" width="695" height="4" fill="black"/>
<rect x="1" y="439" width="695" height="4" fill="black"/>
<path d="M27.2756 152V125.818H37.6051C39.5909 125.818 41.2827 126.197 42.6804 126.956C44.0781 127.706 45.1435 128.75 45.8764 130.088C46.6179 131.418 46.9886 132.952 46.9886 134.69C46.9886 136.429 46.6136 137.963 45.8636 139.293C45.1136 140.622 44.027 141.658 42.6037 142.399C41.1889 143.141 39.4759 143.511 37.4645 143.511H30.8807V139.075H36.5696C37.6349 139.075 38.5128 138.892 39.2031 138.526C39.902 138.151 40.4219 137.635 40.7628 136.979C41.1122 136.314 41.2869 135.551 41.2869 134.69C41.2869 133.821 41.1122 133.062 40.7628 132.415C40.4219 131.759 39.902 131.251 39.2031 130.893C38.5043 130.527 37.6179 130.344 36.544 130.344H32.8111V152H27.2756ZM50.5842 152V125.818H60.9137C62.891 125.818 64.5785 126.172 65.9762 126.879C67.3825 127.578 68.4521 128.571 69.185 129.858C69.9265 131.136 70.2972 132.641 70.2972 134.371C70.2972 136.109 69.9222 137.605 69.1722 138.858C68.4222 140.102 67.3356 141.057 65.9123 141.722C64.4975 142.386 62.7844 142.719 60.7731 142.719H53.8569V138.27H59.8782C60.935 138.27 61.8129 138.125 62.5117 137.835C63.2106 137.545 63.7305 137.111 64.0714 136.531C64.4208 135.952 64.5955 135.232 64.5955 134.371C64.5955 133.501 64.4208 132.768 64.0714 132.172C63.7305 131.575 63.2063 131.124 62.4989 130.817C61.8001 130.501 60.918 130.344 59.8526 130.344H56.1197V152H50.5842ZM64.7234 140.085L71.2305 152H65.1197L58.7532 140.085H64.7234ZM98.2688 138.909C98.2688 141.764 97.7276 144.193 96.6452 146.196C95.5714 148.199 94.1055 149.729 92.2475 150.786C90.3981 151.834 88.3185 152.358 86.0089 152.358C83.6822 152.358 81.5941 151.83 79.7447 150.773C77.8952 149.716 76.4336 148.186 75.3597 146.183C74.2859 144.18 73.7489 141.756 73.7489 138.909C73.7489 136.054 74.2859 133.625 75.3597 131.622C76.4336 129.619 77.8952 128.094 79.7447 127.045C81.5941 125.989 83.6822 125.46 86.0089 125.46C88.3185 125.46 90.3981 125.989 92.2475 127.045C94.1055 128.094 95.5714 129.619 96.6452 131.622C97.7276 133.625 98.2688 136.054 98.2688 138.909ZM92.6566 138.909C92.6566 137.06 92.3796 135.5 91.8256 134.23C91.2802 132.96 90.5089 131.997 89.5117 131.341C88.5146 130.685 87.3469 130.357 86.0089 130.357C84.6708 130.357 83.5032 130.685 82.506 131.341C81.5089 131.997 80.7333 132.96 80.1793 134.23C79.6339 135.5 79.3612 137.06 79.3612 138.909C79.3612 140.759 79.6339 142.318 80.1793 143.588C80.7333 144.858 81.5089 145.821 82.506 146.477C83.5032 147.134 84.6708 147.462 86.0089 147.462C87.3469 147.462 88.5146 147.134 89.5117 146.477C90.5089 145.821 91.2802 144.858 91.8256 143.588C92.3796 142.318 92.6566 140.759 92.6566 138.909ZM111.651 152H102.369V125.818H111.727C114.361 125.818 116.628 126.342 118.528 127.391C120.429 128.43 121.891 129.926 122.913 131.878C123.945 133.83 124.46 136.165 124.46 138.884C124.46 141.611 123.945 143.955 122.913 145.915C121.891 147.875 120.42 149.379 118.503 150.428C116.594 151.476 114.31 152 111.651 152ZM107.905 147.257H111.42C113.057 147.257 114.433 146.967 115.55 146.388C116.675 145.8 117.518 144.892 118.081 143.665C118.652 142.429 118.938 140.835 118.938 138.884C118.938 136.949 118.652 135.368 118.081 134.141C117.518 132.913 116.679 132.01 115.562 131.43C114.446 130.851 113.07 130.561 111.433 130.561H107.905V147.257Z" fill="black"/>
<path d="M27.2756 199V172.818H37.6051C39.5824 172.818 41.2699 173.172 42.6676 173.879C44.0739 174.578 45.1435 175.571 45.8764 176.858C46.6179 178.136 46.9886 179.641 46.9886 181.371C46.9886 183.109 46.6136 184.605 45.8636 185.858C45.1136 187.102 44.027 188.057 42.6037 188.722C41.1889 189.386 39.4759 189.719 37.4645 189.719H30.5483V185.27H36.5696C37.6264 185.27 38.5043 185.125 39.2031 184.835C39.902 184.545 40.4219 184.111 40.7628 183.531C41.1122 182.952 41.2869 182.232 41.2869 181.371C41.2869 180.501 41.1122 179.768 40.7628 179.172C40.4219 178.575 39.8977 178.124 39.1903 177.817C38.4915 177.501 37.6094 177.344 36.544 177.344H32.8111V199H27.2756ZM41.4148 187.085L47.9219 199H41.8111L35.4446 187.085H41.4148ZM74.9602 185.909C74.9602 188.764 74.419 191.193 73.3366 193.196C72.2628 195.199 70.7969 196.729 68.9389 197.786C67.0895 198.834 65.0099 199.358 62.7003 199.358C60.3736 199.358 58.2855 198.83 56.4361 197.773C54.5866 196.716 53.125 195.186 52.0511 193.183C50.9773 191.18 50.4403 188.756 50.4403 185.909C50.4403 183.054 50.9773 180.625 52.0511 178.622C53.125 176.619 54.5866 175.094 56.4361 174.045C58.2855 172.989 60.3736 172.46 62.7003 172.46C65.0099 172.46 67.0895 172.989 68.9389 174.045C70.7969 175.094 72.2628 176.619 73.3366 178.622C74.419 180.625 74.9602 183.054 74.9602 185.909ZM69.348 185.909C69.348 184.06 69.071 182.5 68.517 181.23C67.9716 179.96 67.2003 178.997 66.2031 178.341C65.206 177.685 64.0384 177.357 62.7003 177.357C61.3622 177.357 60.1946 177.685 59.1974 178.341C58.2003 178.997 57.4247 179.96 56.8707 181.23C56.3253 182.5 56.0526 184.06 56.0526 185.909C56.0526 187.759 56.3253 189.318 56.8707 190.588C57.4247 191.858 58.2003 192.821 59.1974 193.477C60.1946 194.134 61.3622 194.462 62.7003 194.462C64.0384 194.462 65.206 194.134 66.2031 193.477C67.2003 192.821 67.9716 191.858 68.517 190.588C69.071 189.318 69.348 187.759 69.348 185.909ZM79.0607 199V172.818H84.5962V194.436H95.8207V199H79.0607ZM99.4865 199V172.818H105.022V194.436H116.246V199H99.4865Z" fill="black"/>
<path d="M36.5568 351H27.2756V324.818H36.6335C39.267 324.818 41.5341 325.342 43.4347 326.391C45.3352 327.43 46.7969 328.926 47.8196 330.878C48.8509 332.83 49.3665 335.165 49.3665 337.884C49.3665 340.611 48.8509 342.955 47.8196 344.915C46.7969 346.875 45.3267 348.379 43.4091 349.428C41.5 350.476 39.2159 351 36.5568 351ZM32.8111 346.257H36.3267C37.9631 346.257 39.3395 345.967 40.456 345.388C41.581 344.8 42.4247 343.892 42.9872 342.665C43.5582 341.429 43.8438 339.835 43.8438 337.884C43.8438 335.949 43.5582 334.368 42.9872 333.141C42.4247 331.913 41.5852 331.01 40.4688 330.43C39.3523 329.851 37.9759 329.561 36.3395 329.561H32.8111V346.257ZM59.0025 324.818V351H53.467V324.818H59.0025ZM63.5568 351V324.818H73.8864C75.8636 324.818 77.5511 325.172 78.9489 325.879C80.3551 326.578 81.4247 327.571 82.1577 328.858C82.8991 330.136 83.2699 331.641 83.2699 333.371C83.2699 335.109 82.8949 336.605 82.1449 337.858C81.3949 339.102 80.3082 340.057 78.8849 340.722C77.4702 341.386 75.7571 341.719 73.7457 341.719H66.8295V337.27H72.8509C73.9077 337.27 74.7855 337.125 75.4844 336.835C76.1832 336.545 76.7031 336.111 77.044 335.531C77.3935 334.952 77.5682 334.232 77.5682 333.371C77.5682 332.501 77.3935 331.768 77.044 331.172C76.7031 330.575 76.179 330.124 75.4716 329.817C74.7727 329.501 73.8906 329.344 72.8253 329.344H69.0923V351H63.5568ZM77.696 339.085L84.2031 351H78.0923L71.7259 339.085H77.696ZM87.1818 351V324.818H104.824V329.382H92.7173V335.621H103.916V340.185H92.7173V346.436H104.875V351H87.1818ZM132.326 333.984H126.726C126.624 333.26 126.415 332.616 126.1 332.054C125.784 331.483 125.38 330.997 124.885 330.597C124.391 330.196 123.82 329.889 123.172 329.676C122.533 329.463 121.838 329.357 121.088 329.357C119.733 329.357 118.553 329.693 117.547 330.366C116.542 331.031 115.762 332.003 115.208 333.281C114.654 334.551 114.377 336.094 114.377 337.909C114.377 339.776 114.654 341.344 115.208 342.614C115.77 343.884 116.554 344.842 117.56 345.49C118.566 346.138 119.729 346.462 121.05 346.462C121.792 346.462 122.478 346.364 123.108 346.168C123.748 345.972 124.314 345.686 124.809 345.311C125.303 344.928 125.712 344.463 126.036 343.918C126.368 343.372 126.598 342.75 126.726 342.051L132.326 342.077C132.181 343.278 131.819 344.438 131.239 345.554C130.668 346.662 129.897 347.655 128.925 348.533C127.962 349.402 126.811 350.092 125.473 350.604C124.144 351.107 122.64 351.358 120.961 351.358C118.625 351.358 116.537 350.83 114.696 349.773C112.864 348.716 111.415 347.186 110.35 345.183C109.293 343.18 108.765 340.756 108.765 337.909C108.765 335.054 109.301 332.625 110.375 330.622C111.449 328.619 112.907 327.094 114.748 326.045C116.588 324.989 118.659 324.46 120.961 324.46C122.478 324.46 123.884 324.673 125.179 325.099C126.483 325.526 127.638 326.148 128.644 326.966C129.65 327.776 130.468 328.768 131.098 329.945C131.738 331.121 132.147 332.467 132.326 333.984ZM135.298 329.382V324.818H156.801V329.382H148.785V351H143.314V329.382H135.298ZM183.206 337.909C183.206 340.764 182.665 343.193 181.583 345.196C180.509 347.199 179.043 348.729 177.185 349.786C175.336 350.834 173.256 351.358 170.946 351.358C168.62 351.358 166.532 350.83 164.682 349.773C162.833 348.716 161.371 347.186 160.297 345.183C159.223 343.18 158.686 340.756 158.686 337.909C158.686 335.054 159.223 332.625 160.297 330.622C161.371 328.619 162.833 327.094 164.682 326.045C166.532 324.989 168.62 324.46 170.946 324.46C173.256 324.46 175.336 324.989 177.185 326.045C179.043 327.094 180.509 328.619 181.583 330.622C182.665 332.625 183.206 335.054 183.206 337.909ZM177.594 337.909C177.594 336.06 177.317 334.5 176.763 333.23C176.218 331.96 175.446 330.997 174.449 330.341C173.452 329.685 172.284 329.357 170.946 329.357C169.608 329.357 168.441 329.685 167.444 330.341C166.446 330.997 165.671 331.96 165.117 333.23C164.571 334.5 164.299 336.06 164.299 337.909C164.299 339.759 164.571 341.318 165.117 342.588C165.671 343.858 166.446 344.821 167.444 345.477C168.441 346.134 169.608 346.462 170.946 346.462C172.284 346.462 173.452 346.134 174.449 345.477C175.446 344.821 176.218 343.858 176.763 342.588C177.317 341.318 177.594 339.759 177.594 337.909ZM187.307 351V324.818H197.636C199.614 324.818 201.301 325.172 202.699 325.879C204.105 326.578 205.175 327.571 205.908 328.858C206.649 330.136 207.02 331.641 207.02 333.371C207.02 335.109 206.645 336.605 205.895 337.858C205.145 339.102 204.058 340.057 202.635 340.722C201.22 341.386 199.507 341.719 197.496 341.719H190.58V337.27H196.601C197.658 337.27 198.536 337.125 199.234 336.835C199.933 336.545 200.453 336.111 200.794 335.531C201.143 334.952 201.318 334.232 201.318 333.371C201.318 332.501 201.143 331.768 200.794 331.172C200.453 330.575 199.929 330.124 199.222 329.817C198.523 329.501 197.641 329.344 196.575 329.344H192.842V351H187.307ZM201.446 339.085L207.953 351H201.842L195.476 339.085H201.446Z" fill="black"/>
<path d="M50.3764 397.984H44.777C44.6747 397.26 44.4659 396.616 44.1506 396.054C43.8352 395.483 43.4304 394.997 42.9361 394.597C42.4418 394.196 41.8707 393.889 41.223 393.676C40.5838 393.463 39.8892 393.357 39.1392 393.357C37.7841 393.357 36.6037 393.693 35.598 394.366C34.5923 395.031 33.8125 396.003 33.2585 397.281C32.7045 398.551 32.4276 400.094 32.4276 401.909C32.4276 403.776 32.7045 405.344 33.2585 406.614C33.821 407.884 34.6051 408.842 35.6108 409.49C36.6165 410.138 37.7798 410.462 39.1009 410.462C39.8423 410.462 40.5284 410.364 41.1591 410.168C41.7983 409.972 42.3651 409.686 42.8594 409.311C43.3537 408.928 43.7628 408.463 44.0866 407.918C44.419 407.372 44.6491 406.75 44.777 406.051L50.3764 406.077C50.2315 407.278 49.8693 408.438 49.2898 409.554C48.7188 410.662 47.9474 411.655 46.9759 412.533C46.0128 413.402 44.8622 414.092 43.5241 414.604C42.1946 415.107 40.6903 415.358 39.0114 415.358C36.6761 415.358 34.5881 414.83 32.7472 413.773C30.9148 412.716 29.4659 411.186 28.4006 409.183C27.3438 407.18 26.8153 404.756 26.8153 401.909C26.8153 399.054 27.3523 396.625 28.4261 394.622C29.5 392.619 30.9574 391.094 32.7983 390.045C34.6392 388.989 36.7102 388.46 39.0114 388.46C40.5284 388.46 41.9347 388.673 43.2301 389.099C44.5341 389.526 45.6889 390.148 46.6946 390.966C47.7003 391.776 48.5185 392.768 49.1491 393.945C49.7884 395.121 50.1974 396.467 50.3764 397.984ZM58.3665 415H52.4347L61.473 388.818H68.6065L77.6321 415H71.7003L65.142 394.801H64.9375L58.3665 415ZM57.9957 404.709H72.0071V409.03H57.9957V404.709ZM80.7834 388.818H87.6101L94.8203 406.409H95.1271L102.337 388.818H109.164V415H103.795V397.959H103.577L96.8018 414.872H93.1456L86.37 397.895H86.1527V415H80.7834V388.818ZM113.725 415V388.818H131.367V393.382H119.26V399.621H130.459V404.185H119.26V410.436H131.418V415H113.725ZM135.768 415V388.818H146.097C148.075 388.818 149.762 389.172 151.16 389.879C152.566 390.578 153.636 391.571 154.369 392.858C155.11 394.136 155.481 395.641 155.481 397.371C155.481 399.109 155.106 400.605 154.356 401.858C153.606 403.102 152.519 404.057 151.096 404.722C149.681 405.386 147.968 405.719 145.957 405.719H139.04V401.27H145.062C146.119 401.27 146.996 401.125 147.695 400.835C148.394 400.545 148.914 400.111 149.255 399.531C149.604 398.952 149.779 398.232 149.779 397.371C149.779 396.501 149.604 395.768 149.255 395.172C148.914 394.575 148.39 394.124 147.683 393.817C146.984 393.501 146.102 393.344 145.036 393.344H141.303V415H135.768ZM149.907 403.085L156.414 415H150.303L143.937 403.085H149.907ZM163.906 415H157.974L167.012 388.818H174.146L183.171 415H177.239L170.681 394.801H170.477L163.906 415ZM163.535 404.709H177.546V409.03H163.535V404.709Z" fill="black"/>
<path d="M36.5568 493H27.2756V466.818H36.6335C39.267 466.818 41.5341 467.342 43.4347 468.391C45.3352 469.43 46.7969 470.926 47.8196 472.878C48.8509 474.83 49.3665 477.165 49.3665 479.884C49.3665 482.611 48.8509 484.955 47.8196 486.915C46.7969 488.875 45.3267 490.379 43.4091 491.428C41.5 492.476 39.2159 493 36.5568 493ZM32.8111 488.257H36.3267C37.9631 488.257 39.3395 487.967 40.456 487.388C41.581 486.8 42.4247 485.892 42.9872 484.665C43.5582 483.429 43.8438 481.835 43.8438 479.884C43.8438 477.949 43.5582 476.368 42.9872 475.141C42.4247 473.913 41.5852 473.01 40.4688 472.43C39.3523 471.851 37.9759 471.561 36.3395 471.561H32.8111V488.257ZM56.5032 493H50.5714L59.6097 466.818H66.7433L75.7688 493H69.837L63.2788 472.801H63.0742L56.5032 493ZM56.1325 482.709H70.1438V487.03H56.1325V482.709ZM74.7237 471.382V466.818H96.2266V471.382H88.2109V493H82.7393V471.382H74.7237ZM99.7678 493V466.818H117.41V471.382H105.303V477.621H116.502V482.185H105.303V488.436H117.461V493H99.7678Z" fill="black"/>
<path d="M198.479 180.348C198.376 179.317 197.938 178.516 197.162 177.945C196.386 177.374 195.334 177.088 194.004 177.088C193.101 177.088 192.338 177.216 191.716 177.472C191.094 177.719 190.616 178.064 190.284 178.507C189.96 178.95 189.798 179.453 189.798 180.016C189.781 180.484 189.879 180.893 190.092 181.243C190.314 181.592 190.616 181.895 191 182.151C191.384 182.398 191.827 182.615 192.33 182.803C192.832 182.982 193.369 183.135 193.94 183.263L196.293 183.825C197.435 184.081 198.483 184.422 199.438 184.848C200.392 185.274 201.219 185.798 201.918 186.42C202.616 187.043 203.158 187.776 203.541 188.619C203.933 189.463 204.134 190.43 204.142 191.521C204.134 193.124 203.724 194.513 202.915 195.689C202.114 196.857 200.955 197.764 199.438 198.412C197.929 199.051 196.109 199.371 193.979 199.371C191.865 199.371 190.024 199.047 188.456 198.399C186.896 197.751 185.678 196.793 184.8 195.523C183.93 194.244 183.474 192.663 183.432 190.78H188.788C188.848 191.658 189.099 192.391 189.543 192.979C189.994 193.558 190.595 193.997 191.345 194.295C192.104 194.585 192.96 194.73 193.915 194.73C194.852 194.73 195.666 194.594 196.357 194.321C197.055 194.048 197.597 193.669 197.98 193.183C198.364 192.697 198.555 192.139 198.555 191.509C198.555 190.92 198.381 190.426 198.031 190.026C197.69 189.625 197.188 189.284 196.523 189.003C195.866 188.722 195.061 188.466 194.107 188.236L191.256 187.52C189.048 186.983 187.305 186.143 186.027 185.001C184.749 183.859 184.114 182.321 184.122 180.386C184.114 178.801 184.536 177.416 185.388 176.232C186.249 175.047 187.429 174.122 188.929 173.457C190.429 172.793 192.134 172.46 194.043 172.46C195.986 172.46 197.682 172.793 199.131 173.457C200.588 174.122 201.722 175.047 202.531 176.232C203.341 177.416 203.759 178.788 203.784 180.348H198.479ZM230.966 181.984H225.367C225.265 181.26 225.056 180.616 224.74 180.054C224.425 179.483 224.02 178.997 223.526 178.597C223.032 178.196 222.461 177.889 221.813 177.676C221.174 177.463 220.479 177.357 219.729 177.357C218.374 177.357 217.194 177.693 216.188 178.366C215.182 179.031 214.402 180.003 213.848 181.281C213.294 182.551 213.017 184.094 213.017 185.909C213.017 187.776 213.294 189.344 213.848 190.614C214.411 191.884 215.195 192.842 216.201 193.49C217.206 194.138 218.37 194.462 219.691 194.462C220.432 194.462 221.118 194.364 221.749 194.168C222.388 193.972 222.955 193.686 223.449 193.311C223.944 192.928 224.353 192.463 224.676 191.918C225.009 191.372 225.239 190.75 225.367 190.051L230.966 190.077C230.821 191.278 230.459 192.438 229.88 193.554C229.309 194.662 228.537 195.655 227.566 196.533C226.603 197.402 225.452 198.092 224.114 198.604C222.784 199.107 221.28 199.358 219.601 199.358C217.266 199.358 215.178 198.83 213.337 197.773C211.505 196.716 210.056 195.186 208.99 193.183C207.934 191.18 207.405 188.756 207.405 185.909C207.405 183.054 207.942 180.625 209.016 178.622C210.09 176.619 211.547 175.094 213.388 174.045C215.229 172.989 217.3 172.46 219.601 172.46C221.118 172.46 222.525 172.673 223.82 173.099C225.124 173.526 226.279 174.148 227.284 174.966C228.29 175.776 229.108 176.768 229.739 177.945C230.378 179.121 230.787 180.467 230.966 181.984ZM234.936 199V172.818H252.578V177.382H240.471V183.621H251.67V188.185H240.471V194.436H252.629V199H234.936ZM278.878 172.818V199H274.097L262.706 182.521H262.514V199H256.979V172.818H261.837L273.138 189.284H273.368V172.818H278.878ZM283.451 199V172.818H301.093V177.382H288.987V183.621H300.186V188.185H288.987V194.436H301.145V199H283.451Z" fill="black"/>
<path d="M379.278 177.382V172.818H400.781V177.382H392.766V199H387.294V177.382H379.278ZM405.636 199H399.704L408.743 172.818H415.876L424.902 199H418.97L412.412 178.801H412.207L405.636 199ZM405.265 188.709H419.277V193.03H405.265V188.709ZM428.053 199V172.818H433.588V184.362H433.934L443.355 172.818H449.99L440.275 184.541L450.105 199H443.483L436.311 188.236L433.588 191.56V199H428.053ZM452.873 199V172.818H470.515V177.382H458.409V183.621H469.608V188.185H458.409V194.436H470.566V199H452.873Z" fill="black"/>
<path d="M545.276 197V170.818H562.611V175.382H550.811V181.621H561.46V186.185H550.811V197H545.276ZM566.334 197V170.818H576.664C578.65 170.818 580.341 171.197 581.739 171.956C583.137 172.706 584.202 173.75 584.935 175.088C585.676 176.418 586.047 177.952 586.047 179.69C586.047 181.429 585.672 182.963 584.922 184.293C584.172 185.622 583.086 186.658 581.662 187.399C580.248 188.141 578.534 188.511 576.523 188.511H569.939V184.075H575.628C576.694 184.075 577.571 183.892 578.262 183.526C578.961 183.151 579.48 182.635 579.821 181.979C580.171 181.314 580.346 180.551 580.346 179.69C580.346 178.821 580.171 178.062 579.821 177.415C579.48 176.759 578.961 176.251 578.262 175.893C577.563 175.527 576.676 175.344 575.603 175.344H571.87V197H566.334ZM603.846 178.348C603.744 177.317 603.305 176.516 602.529 175.945C601.754 175.374 600.701 175.088 599.371 175.088C598.468 175.088 597.705 175.216 597.083 175.472C596.461 175.719 595.984 176.064 595.651 176.507C595.327 176.95 595.165 177.453 595.165 178.016C595.148 178.484 595.246 178.893 595.46 179.243C595.681 179.592 595.984 179.895 596.367 180.151C596.751 180.398 597.194 180.615 597.697 180.803C598.2 180.982 598.737 181.135 599.308 181.263L601.66 181.825C602.802 182.081 603.85 182.422 604.805 182.848C605.759 183.274 606.586 183.798 607.285 184.42C607.984 185.043 608.525 185.776 608.908 186.619C609.3 187.463 609.501 188.43 609.509 189.521C609.501 191.124 609.092 192.513 608.282 193.689C607.481 194.857 606.322 195.764 604.805 196.412C603.296 197.051 601.477 197.371 599.346 197.371C597.232 197.371 595.391 197.047 593.823 196.399C592.263 195.751 591.045 194.793 590.167 193.523C589.298 192.244 588.842 190.663 588.799 188.78H594.156C594.215 189.658 594.467 190.391 594.91 190.979C595.362 191.558 595.962 191.997 596.712 192.295C597.471 192.585 598.327 192.73 599.282 192.73C600.219 192.73 601.033 192.594 601.724 192.321C602.423 192.048 602.964 191.669 603.347 191.183C603.731 190.697 603.923 190.139 603.923 189.509C603.923 188.92 603.748 188.426 603.398 188.026C603.058 187.625 602.555 187.284 601.89 187.003C601.234 186.722 600.428 186.466 599.474 186.236L596.623 185.52C594.415 184.983 592.673 184.143 591.394 183.001C590.116 181.859 589.481 180.321 589.489 178.386C589.481 176.801 589.903 175.416 590.755 174.232C591.616 173.047 592.796 172.122 594.296 171.457C595.796 170.793 597.501 170.46 599.41 170.46C601.353 170.46 603.049 170.793 604.498 171.457C605.955 172.122 607.089 173.047 607.898 174.232C608.708 175.416 609.126 176.788 609.151 178.348H603.846Z" fill="black"/>
</svg>
