<svg width="689" height="202" viewBox="0 0 689 202" fill="none" xmlns="http://www.w3.org/2000/svg">
<path d="M667.5 0.5L3 160H0.5V188L11 201H122.5L681.5 68.5L687.5 64.5L673.5 0.5H667.5Z" fill="black" stroke="black"/>
<path d="M244 171L190 125.5L250 111L305 157L244 171Z" fill="#9EA2AD"/>
<path d="M305 156L251 110.5L311 96L366 142L305 156Z" fill="#C0C3C8"/>
<path d="M366.47 142L312 95.7417L372.522 81L428 127.767L366.47 142Z" fill="#E7ECF5"/>
<path d="M427.409 128L372 80.9833L433.565 66L490 113.533L427.409 128Z" fill="#3967F0"/>
<path d="M489.47 113L435 66.7417L495.522 52L551 98.7667L489.47 113Z" fill="#12A33A" stroke="#12A33A"/>
<path d="M550.409 99L495 51.225L556.565 36L613 84.3L550.409 99Z" fill="#DE3322"/>
<path d="M611.878 84L556 36.225L618.087 21L675 69.3L611.878 84Z" fill="#E9E127"/>
</svg>